<?xml version="1.0" encoding="UTF-8"?>
<svg width="104px" height="77px" viewBox="0 0 104 77" version="1.1" xmlns="http://www.w3.org/2000/svg" xmlns:xlink="http://www.w3.org/1999/xlink">
    <!-- Generator: Sketch 62 (91390) - https://sketch.com -->
    <title>logos/logo no since/logo-gold</title>
    <desc>Created with Sketch.</desc>
    <defs>
        <polygon id="path-1" points="0 0 103 0 103 77 0 77"></polygon>
        <linearGradient x1="47.1992541%" y1="0%" x2="47.1992567%" y2="100%" id="linearGradient-3">
            <stop stop-color="#FBDA6C" offset="0%"></stop>
            <stop stop-color="#AC8A4A" offset="100%"></stop>
        </linearGradient>
    </defs>
    <g id="logos/logo-no-since/logo-gold" stroke="none" stroke-width="1" fill="none" fill-rule="evenodd">
        <g id="Group-3">
            <mask id="mask-2" fill="white">
                <use xlink:href="#path-1"></use>
            </mask>
            <g id="Clip-2"></g>
            <path d="M39.8002186,61.852329 C44.4388063,63.180621 49.481909,63.075307 54.0575226,61.5430617 C60.0911686,59.5517362 65.2594784,55.0573478 68.0577447,49.3384982 C59.3866012,49.3310817 50.7161985,49.3370149 42.045055,49.3355316 C36.2810857,49.372614 30.5178573,49.3377566 24.7531471,49.3562978 C27.7269997,55.3888646 33.3442767,60.028616 39.8002186,61.852329 M77.6571984,49.3911552 C77.0067145,51.2423093 76.205093,53.0415479 75.2427028,54.7525304 C72.2999668,60.0189746 67.8910489,64.4473562 62.649393,67.4176574 C56.1549258,71.125157 48.3817169,72.4897898 41.013023,71.2564287 C36.4700076,70.5132972 32.0899836,68.79119 28.2478314,66.2495615 C22.2008497,62.2691353 17.5081786,56.2580763 15.1529525,49.3963468 C13.3052225,49.4134047 11.4597152,49.3422065 9.61198515,49.3540728 C9.65865997,49.5394849 9.70311217,49.7256386 9.75423221,49.9110507 C12.0242582,57.3497825 16.6480284,64.0231334 22.7498344,68.8178893 C28.7390282,73.5488635 36.1699552,76.4212671 43.7816545,76.9077884 C50.7436107,77.3957929 57.8374418,75.9399374 64.0288931,72.7041261 C69.1423785,70.051992 73.6379782,66.2191539 77.0919145,61.6038769 C79.8420243,57.9319764 81.9342414,53.7646549 83.2137241,49.3540728 C81.3600671,49.3377566 79.5093736,49.4215628 77.6571984,49.3911552 M70.7108005,39.6295811 C70.3929672,38.6468971 70.0343861,37.6797878 69.6935858,36.705262 C69.4942918,36.1786918 69.3757526,35.606881 69.0201349,35.1559589 C68.648959,35.686979 68.4718911,36.3151551 68.221477,36.9047654 C67.936242,37.6093313 67.6606383,38.3176053 67.3694764,39.0206879 C67.2709407,39.2795231 67.1464745,39.5628327 67.2287111,39.8446591 C67.3954068,40.0656702 67.6932366,40.0819865 67.9451324,40.1175856 C68.665999,40.1628262 69.3994604,40.1353852 70.1055096,39.9774141 C70.3418472,39.9336568 70.5248421,39.7704942 70.7108005,39.6295811 M72.0873371,44.2359583 C72.1547563,43.7190295 71.9258274,43.2132254 71.6872672,42.7674948 C71.4442619,42.3069312 70.9552876,41.9984056 70.4344559,42.0043387 C69.4913283,41.9865392 68.5482007,42.0028554 67.6058139,41.9969223 C67.0220083,41.995439 66.3344809,42.0933365 65.9840493,42.6191651 C65.7054822,43.0396797 65.4735898,43.5195261 65.4417324,44.0312634 C65.3728315,44.4562278 65.8981084,44.5133347 66.1500042,44.7232212 C66.584895,44.9249495 66.6523141,45.5798249 66.29966,45.8883506 C66.0625815,46.1049119 65.7188178,46.0700544 65.4261741,46.0834041 C64.3748795,46.0767292 63.3243257,46.0752459 62.2745128,46.0819208 C62.0240987,46.0700544 61.7551628,46.0960121 61.5247522,45.9795733 C61.0676354,45.7318628 61.0283693,45.0198805 61.3795417,44.6675976 C61.725528,44.3976376 62.2019075,44.3664884 62.5360399,44.0757623 C62.940555,43.6849137 63.1546664,43.1501853 63.3976718,42.6540226 C64.9949877,39.094111 66.5967489,35.5364244 68.1866561,31.9728046 C68.2903779,31.7540184 68.4111397,31.5433903 68.5319015,31.3342455 C69.384643,31.3127377 70.2396071,31.2890049 71.0916077,31.3275706 C71.4116636,31.3157043 71.5457611,31.6524126 71.6420742,31.9016064 C72.9874943,35.6476716 74.3440274,39.391512 75.6879657,43.1405438 C75.8265084,43.509143 75.9909816,43.884417 76.2843661,44.1588269 C76.5999768,44.4488113 77.0422762,44.5378091 77.374186,44.8055442 C77.6016332,45.0428716 77.6016332,45.4188873 77.5231009,45.7199964 C77.3467739,46.1063952 76.8644674,46.0752459 76.5118133,46.0819208 C74.9182017,46.0611546 73.3223675,46.1063952 71.7317195,46.0611546 C71.0916077,46.0841457 70.8300806,45.2453416 71.2012565,44.7981277 C71.4553749,44.5511588 71.8391456,44.4933102 72.0873371,44.2359583 M88.5894774,36.5035337 C88.5413209,35.5809233 88.2160789,34.6227138 87.4974349,34.0093707 C86.6217265,33.2714307 85.4052178,33.1008516 84.3005805,33.2224819 C83.8079019,33.2551144 83.2396545,33.5376824 83.2092789,34.0924353 C83.1640858,35.4770926 83.2077971,36.8654581 83.1885345,38.2515986 C83.1966841,38.7663025 83.1448232,39.3462714 83.4730286,39.7823606 C83.8145697,40.1999086 84.4043023,40.1880422 84.8947583,40.1984253 C85.8815973,40.2214164 86.9462276,40.0055967 87.6789481,39.296581 C88.4227817,38.5868236 88.6413384,37.4958591 88.5894774,36.5035337 M87.8345308,46.0819208 C87.5692993,46.0685711 87.2625791,46.0952704 87.052172,45.9046668 C86.7447109,45.655473 86.749897,45.1771099 86.9291876,44.8530096 C87.1351495,44.5378091 87.5329967,44.4562278 87.8537934,44.3034483 C87.6374594,43.7716865 87.2114591,43.376388 86.8380606,42.9566151 C86.5365264,42.6288066 86.2246201,42.3113811 85.9104912,41.9969223 C85.2051829,42.033263 84.502838,41.9969223 83.8027158,41.9331405 C83.5256304,41.8812251 83.2018702,42.0851784 83.2055745,42.3848043 C83.1803849,42.8698422 83.1492684,43.3667466 83.2396545,43.8480763 C83.4256129,44.4020875 84.143516,44.3642634 84.4828345,44.7692034 C84.7073182,45.1400275 84.6213773,45.7429875 84.200563,45.938041 C83.9079194,46.0834041 83.5745278,46.0774709 83.2566945,46.0819208 C81.988325,46.0767292 80.7199554,46.0767292 79.4523266,46.0819208 C79.1381977,46.0752459 78.8070288,46.085629 78.5225347,45.938041 C78.0661587,45.7155465 77.9624369,44.9961478 78.3513937,44.6668559 C78.6492235,44.4391699 79.0381803,44.3709383 79.3300831,44.1358358 C79.5478989,43.9044415 79.5338224,43.5647666 79.5441945,43.268849 C79.5382676,40.2125166 79.5404902,37.1569258 79.5427128,34.1005934 C79.5308589,33.8150588 79.5441945,33.4768672 79.3174883,33.2654975 C79.005582,33.0081456 78.5743956,32.9488137 78.2736023,32.6795954 C77.9765134,32.305063 78.1002387,31.6657622 78.5388338,31.4566174 C78.891488,31.2964214 79.2915578,31.3149626 79.6694016,31.3090294 C81.3748845,31.3208958 83.0818492,31.3008713 84.7873322,31.3223791 C86.3957611,31.3297956 88.0516058,31.5107577 89.5177877,32.2197735 C90.8913608,32.8917068 92.1086104,33.9937961 92.6894525,35.4325937 C93.1695363,36.6132977 93.1902807,38.0476454 92.5316472,39.1653093 C91.9041302,40.2399576 90.7268877,40.8199265 89.5829842,41.1774009 C90.2593986,41.9887641 90.9306269,42.8030939 91.6129683,43.6092655 C91.9159841,43.9689649 92.2634522,44.3093815 92.7087151,44.4858938 C92.9895049,44.6305152 93.3591991,44.7113548 93.5014461,45.0265553 C93.6014636,45.3209897 93.5399714,45.6992303 93.2702947,45.8839007 C92.9880232,46.0923039 92.6205516,46.0752459 92.2901235,46.0834041 C90.804679,46.0745043 89.3184936,46.0774709 87.8345308,46.0819208 M97.7918248,34.6219721 C98.3148791,34.6197472 98.8394151,34.6442216 99.3632103,34.6056559 C99.632887,34.5804398 99.9255307,34.5255579 100.124825,34.3253128 C100.3419,34.1094932 100.344122,33.7653684 100.281889,33.4865087 C100.184094,33.1898494 99.8647793,33.045228 99.5773217,33.0148204 C98.9846257,32.9458471 98.3867435,32.9970208 97.7933066,32.9851545 C97.7881205,33.5302659 97.7881205,34.076119 97.7918248,34.6219721 M97.1517131,32.505308 C97.8873971,32.4986332 98.6238219,32.494925 99.3609877,32.4978916 C99.7173462,32.5001165 100.094449,32.5334907 100.400428,32.7411522 C101.128704,33.1750164 101.159079,34.4024442 100.439695,34.8585579 C100.169277,35.0358118 99.838108,35.0543531 99.5321287,35.1203597 C99.9507203,35.8590414 100.450067,36.547291 100.88718,37.2755895 C100.649361,37.2822644 100.41006,37.2859726 100.173722,37.2926475 C99.7040105,36.5762152 99.273565,35.8353087 98.823116,35.1070101 C98.4771296,35.1070101 98.1333659,35.1077517 97.7910839,35.1077517 C97.7888613,35.8353087 97.7910839,36.5636072 97.7881205,37.2919058 C97.5732681,37.283006 97.3621202,37.2718813 97.1539357,37.2570483 C97.1568991,35.6728877 97.1568991,34.0894687 97.1517131,32.505308 M23.2514035,33.043003 C22.2008497,33.3700699 21.5110996,34.3349543 21.0547237,35.2857473 C20.2553248,37.0093378 20.0071334,38.9991801 20.3923858,40.8629421 C20.6116834,41.925724 21.1132524,42.9721897 21.9867382,43.6470896 C23.0343285,44.4658693 24.5894149,44.4992434 25.7073878,43.8020941 C26.4623344,43.3311474 26.9587174,42.5405504 27.2380254,41.7099044 C27.7181092,40.2102916 27.6781023,38.5912735 27.3936081,37.057545 C27.1409714,35.8175091 26.6519972,34.5604153 25.7029426,33.6889786 C25.0613491,33.085277 24.1108128,32.7693348 23.2514035,33.043003 M27.6366135,31.9906042 C29.5302775,32.9784796 31.0134994,34.7480523 31.6232355,36.8009347 C32.1381402,38.5912735 32.1240637,40.5736993 31.3824527,42.2987731 C30.7512314,43.7731698 29.504347,44.9382992 28.0411286,45.564992 C26.1608003,46.380805 24.0456162,46.475736 22.0363765,46.2117092 C20.3953493,45.9706735 18.7343186,45.3654886 17.5578169,44.1521521 C16.4324352,43.0344881 15.8730783,41.4443943 15.8123269,39.8780332 C15.6871199,37.6263892 16.4739239,35.3250547 18.0090067,33.6689541 C19.2640407,32.2969049 21.0065671,31.3846775 22.8468884,31.1354837 C24.4812478,30.9359804 26.1770995,31.2163234 27.6366135,31.9906042 M96.0885645,37.2741062 C97.0642904,38.4199528 98.7949629,38.8159929 100.169277,38.2019082 C101.827344,37.5262666 102.749727,35.4830257 102.146659,33.7905844 C101.62805,32.0417779 99.6284418,30.9263389 97.8740614,31.4358513 C96.8938903,31.6902366 96.0352218,32.3740363 95.5825502,33.2818138 C94.910581,34.5515155 95.1291377,36.209841 96.0885645,37.2741062 M95.1928525,37.1991998 C94.489026,36.104527 94.3193667,34.6761124 94.7750018,33.4531345 C95.2284143,32.1648915 96.3508325,31.1466085 97.6658769,30.8024837 C98.6719785,30.5451317 99.7766158,30.6430293 100.703444,31.1258423 C101.775483,31.6798535 102.603035,32.7085197 102.875675,33.8899653 C103.312048,35.5809233 102.571178,37.5077254 101.100551,38.4496187 C100.210766,39.0377458 99.0950153,39.2802647 98.0444615,39.0874362 C96.8864816,38.8975742 95.8181469,38.1967167 95.1928525,37.1991998 M32.2677925,44.2633993 C31.8877261,44.4836688 31.2557639,44.5652501 31.2313152,45.1125865 C31.1209256,45.6606646 31.6247172,46.0841457 32.1381402,46.0641212 C34.8245351,46.1026869 37.5131527,46.0611546 40.1995476,46.0834041 C40.8211376,46.0685711 41.2678823,46.5543507 41.6968461,46.9355579 C42.0376463,46.9303664 42.3636292,46.7916781 42.5384745,46.4868607 C43.1719184,45.5138182 43.7460927,44.50221 44.3699054,43.5232343 C44.5573455,43.2199002 44.7803474,42.8906084 44.719596,42.5145927 C44.7055195,42.2572408 44.4899263,42.0169468 44.22914,42.0050804 C43.8261067,41.9590982 43.4927152,42.2290582 43.1822906,42.4426529 C42.461424,42.9788645 41.7205539,43.5351007 40.8411411,43.7739114 C39.9609875,44.0386799 39.034159,43.9526487 38.1295566,43.9682233 C37.7628259,43.96674 37.3938726,43.9897311 37.0301054,43.9407823 C36.741166,43.9081498 36.4655624,43.6789805 36.4307415,43.3823212 C36.3544319,42.9121162 36.3855484,42.435978 36.3914754,41.9635481 C36.387771,39.3462714 36.3862893,36.7282531 36.3951797,34.1102348 C36.4025884,33.8180254 36.393698,33.4701924 36.6374442,33.2617892 C36.9515732,33.0088872 37.3842413,32.9569718 37.6850345,32.682562 C37.9510069,32.3221209 37.8709929,31.7191609 37.4649961,31.4907332 C37.1412359,31.3016129 36.7515382,31.3223791 36.3914754,31.3105127 C35.0823579,31.3157043 33.7739813,31.3082878 32.464123,31.3134793 C32.0781297,31.326829 31.6232355,31.3527867 31.3668944,31.6865284 C31.1764908,31.9750295 31.1646369,32.4074105 31.3831936,32.6862702 C31.6913955,32.9525219 32.1248045,33.0066623 32.4404152,33.2632725 C32.6767527,33.4746423 32.6589719,33.8180254 32.6708258,34.1072682 C32.6671214,37.1999414 32.669344,40.2933562 32.6700849,43.3867711 C32.6789754,43.7160629 32.6167423,44.126936 32.2677925,44.2633993 M48.9758947,45.2542413 C50.6724872,45.9432326 52.5305894,46.0559631 54.3412759,46.0774709 C55.9726718,46.0811791 57.6040677,46.0767292 59.2347228,46.0796958 C59.6451648,46.0841457 60.1534017,46.0033061 60.340101,45.5827915 C60.4534541,45.2490498 60.454195,44.7692034 60.0926504,44.5904662 C59.7259197,44.3472055 59.131001,44.2886153 59.0295018,43.7805863 C58.9176304,43.1420271 59.0035713,42.4893767 58.9783818,41.845626 C58.9983852,41.3368553 58.896886,40.7910022 59.1191471,40.314864 C59.3895647,39.941815 59.9326224,39.9299486 60.2334157,39.5880488 C60.4045567,39.3151222 60.3815897,38.9457814 60.2185983,38.6765631 C59.9941146,38.3635875 59.5733004,38.3279884 59.2206463,38.3205719 C57.9922837,38.3227969 56.7624393,38.3302133 55.5333358,38.3190886 C55.201426,38.3220552 54.8502536,38.3109305 54.5509421,38.4726098 C54.1508723,38.6721132 54.0656722,39.2476322 54.2908967,39.6073316 C54.6250291,39.9759308 55.3066296,39.9596145 55.475548,40.4876681 C55.6170542,41.1121359 55.5103689,41.7588532 55.5214819,42.3937041 C55.5014784,42.7808444 55.5785289,43.2532744 55.2525461,43.5395506 C54.8213597,43.9059248 54.2160688,43.8918335 53.6833832,43.8925752 C52.384638,43.8896086 51.0540353,43.3934459 50.1864764,42.4011205 C49.2040827,41.3086727 48.854392,39.792002 48.8432789,38.3546877 C48.8292024,36.8469169 49.3078045,35.2723976 50.4028105,34.1992326 C51.3526059,33.2336066 52.7810035,32.787876 54.1101244,33.0244618 C55.3266331,33.2172904 56.3868182,33.928531 57.2647492,34.761402 C57.5877686,35.056578 57.864854,35.4125692 58.2464021,35.6387719 C58.4531049,35.7589189 58.7761242,35.7566939 58.9109626,35.5275246 C59.1517454,35.2375402 58.9776409,34.854108 58.8872547,34.5411325 C58.5338597,33.5391657 58.0974872,32.5683481 57.7159391,31.5775061 C57.5907321,31.2786218 57.4862694,30.9611964 57.2751214,30.7127442 C57.1210204,30.5295571 56.8313402,30.5169491 56.6468636,30.6571206 C56.336439,30.8403077 56.1452945,31.2578557 55.7474473,31.2556308 C54.9828694,31.284555 54.232368,31.0857933 53.4685309,31.0857933 C51.4163208,30.9945706 49.3085454,31.5211408 47.6297337,32.7278025 C46.1842962,33.7549853 45.0974398,35.3050302 44.7240413,37.0501285 C44.406208,38.6150063 44.4899263,40.3067059 45.1707859,41.7684946 C45.9094334,43.3808379 47.3519075,44.597141 48.9758947,45.2542413 M1.11716872,44.2700741 C1.49871682,44.8752591 1.85433446,45.4967603 2.25588605,46.0900789 C2.46407054,46.4045378 2.82191079,46.7004554 3.22716673,46.58105 C3.66428008,46.4156625 3.81838106,45.9224664 4.14065955,45.6220989 C4.48812762,45.5486757 4.84374526,45.657698 5.18750899,45.7148049 C6.68332569,46.0255555 8.21766765,46.1508941 9.7446009,46.0685711 C10.7803373,46.0099809 11.8145919,45.7733951 12.7451248,45.30764 C13.6541724,44.8478181 14.4409764,44.1032033 14.8477141,43.1568601 C15.3448379,41.9880225 15.3011266,40.624873 14.8417871,39.4515855 C14.3579989,38.2656899 13.2881825,37.4513602 12.1702096,36.9055071 C10.496584,36.0948855 8.66070796,35.7329612 6.88854671,35.2071326 C6.40031332,35.0469366 5.88170426,34.8986069 5.48978398,34.548549 C5.15935592,34.2607894 5.12379416,33.7015867 5.43718221,33.3886111 C5.88911296,32.8924484 6.60923868,32.8294083 7.23897826,32.7923259 C8.75479846,32.7493103 10.1298533,33.5169162 11.3382125,34.3557204 C11.7249466,34.5967561 12.1776183,34.9564555 12.6569612,34.7732684 C13.045918,34.6182639 13.0681441,34.1094932 12.8888536,33.7883595 C12.6651108,33.3760031 12.3294966,33.0407781 12.0324077,32.6840453 C11.48935,32.0655106 10.9766679,31.42176 10.4121248,30.8232498 C10.137262,30.5369736 9.76756787,30.2284479 9.34156757,30.3396952 C9.03262474,30.4850582 8.93557076,30.8707153 8.67997058,31.0872766 C8.39177212,31.1836909 8.08282929,31.1035929 7.79018561,31.0650272 C6.46106467,30.8173166 5.05785672,30.7572431 3.7554071,31.1740494 C2.85450908,31.459584 2.00547196,32.0069204 1.4890855,32.815317 C0.796371971,33.8921903 0.780072829,35.3969945 1.52835162,36.4508767 C2.09659898,37.2592733 2.9604535,37.8147678 3.87394632,38.1574093 C5.04007584,38.6068481 6.24176712,38.9554228 7.41900969,39.3729708 C8.40807126,39.726737 9.42158154,40.0545455 10.3172935,40.6196815 C10.7884869,40.9170824 11.2248593,41.3709711 11.2789429,41.9539067 C11.3382125,42.5917241 10.9203617,43.1820761 10.3780448,43.4750272 C9.333418,44.0690874 8.08282929,44.0460964 6.92114499,43.9852812 C5.04378019,43.8821921 3.21160846,43.1894926 1.72912741,42.0310381 C1.31942625,41.7388287 0.86453202,41.3064477 0.317769894,41.470352 C-0.0608147209,41.6542808 -0.0526651499,42.1571183 0.0925453874,42.4945682 C0.347404698,43.1323857 0.776368479,43.6782388 1.11716872,44.2700741 M57.1662135,16.7489911 C52.6291251,14.4795475 47.3652431,13.7252912 42.370297,14.57967 C38.5229586,15.2256456 34.848243,16.8416971 31.7551104,19.222388 C28.8131152,21.4769987 26.3912109,24.4131841 24.7524063,27.742443 C39.1897417,27.7506012 53.6285588,27.7520845 68.0658943,27.7402181 C65.7610474,23.0151771 61.8759247,19.0777666 57.1662135,16.7489911 M9.55345642,27.8143829 C11.2144872,21.8559809 14.4254181,16.3596258 18.6750489,11.8837786 C21.8333781,8.58047737 25.5732903,5.83267063 29.6836376,3.83763685 C37.4901857,0.0114735661 46.6117782,-0.983818376 55.0695512,0.987482654 C62.7264435,2.74370569 69.789899,6.95923431 75.0063652,12.8419882 C78.8181418,17.1086905 81.6623421,22.2401547 83.2470632,27.742443 C81.3985924,27.7402181 79.5523441,27.7676591 77.705355,27.7602426 C75.5738717,21.4643906 71.4887141,15.8604965 66.1744529,11.8882285 C63.2220856,9.67811677 59.9037285,7.95971779 56.3905225,6.84798707 C51.3666825,5.24528522 45.9583308,4.88484417 40.7648315,5.78594679 C33.4213272,7.03117419 26.561611,10.88997 21.6437154,16.4916392 C18.743209,19.7645329 16.5087448,23.622587 15.0899786,27.7624675 C13.2444712,27.7802671 11.3967412,27.7142604 9.55345642,27.8143829" id="Fill-1" fill="url(#linearGradient-3)" mask="url(#mask-2)"></path>
        </g>
    </g>
</svg>